<mxfile host="app.diagrams.net" modified="2024-04-26T11:02:47.076Z" agent="Mozilla/5.0 (Windows NT 10.0; Win64; x64) AppleWebKit/537.36 (KHTML, like Gecko) Chrome/124.0.0.0 Safari/537.36" etag="CzQwdIRBIQy2n-Pg2F23" version="24.2.1" type="device">
  <diagram name="Страница — 1" id="HoZqHaaQN_6nKrrbf--O">
    <mxGraphModel dx="2261" dy="784" grid="1" gridSize="10" guides="1" tooltips="1" connect="1" arrows="1" fold="1" page="1" pageScale="1" pageWidth="827" pageHeight="1169" math="0" shadow="0">
      <root>
        <mxCell id="0" />
        <mxCell id="1" parent="0" />
        <mxCell id="VHnzgXru5prnDkUkWmX3-1" value="" style="rounded=0;whiteSpace=wrap;html=1;" vertex="1" parent="1">
          <mxGeometry x="-300" y="90" width="1580" height="130" as="geometry" />
        </mxCell>
        <mxCell id="VHnzgXru5prnDkUkWmX3-2" value="Слой сущностей" style="text;html=1;align=center;verticalAlign=middle;whiteSpace=wrap;rounded=0;" vertex="1" parent="1">
          <mxGeometry x="310" y="90" width="170" height="30" as="geometry" />
        </mxCell>
        <mxCell id="VHnzgXru5prnDkUkWmX3-3" value="Лампочка" style="rounded=0;whiteSpace=wrap;html=1;" vertex="1" parent="1">
          <mxGeometry x="-280" y="140" width="120" height="60" as="geometry" />
        </mxCell>
        <mxCell id="VHnzgXru5prnDkUkWmX3-4" value="Кофемашина" style="rounded=0;whiteSpace=wrap;html=1;" vertex="1" parent="1">
          <mxGeometry x="-150" y="140" width="120" height="60" as="geometry" />
        </mxCell>
        <mxCell id="VHnzgXru5prnDkUkWmX3-5" value="Розетка" style="rounded=0;whiteSpace=wrap;html=1;" vertex="1" parent="1">
          <mxGeometry x="-20" y="140" width="120" height="60" as="geometry" />
        </mxCell>
        <mxCell id="VHnzgXru5prnDkUkWmX3-6" value="Замок для двери" style="rounded=0;whiteSpace=wrap;html=1;" vertex="1" parent="1">
          <mxGeometry x="110" y="140" width="120" height="60" as="geometry" />
        </mxCell>
        <mxCell id="VHnzgXru5prnDkUkWmX3-7" value="Камера видеонаблюдения" style="rounded=0;whiteSpace=wrap;html=1;" vertex="1" parent="1">
          <mxGeometry x="240" y="140" width="120" height="60" as="geometry" />
        </mxCell>
        <mxCell id="VHnzgXru5prnDkUkWmX3-8" value="Будильник" style="rounded=0;whiteSpace=wrap;html=1;" vertex="1" parent="1">
          <mxGeometry x="370" y="140" width="120" height="60" as="geometry" />
        </mxCell>
        <mxCell id="VHnzgXru5prnDkUkWmX3-9" value="Жалюзи" style="rounded=0;whiteSpace=wrap;html=1;" vertex="1" parent="1">
          <mxGeometry x="500" y="140" width="120" height="60" as="geometry" />
        </mxCell>
        <mxCell id="VHnzgXru5prnDkUkWmX3-10" value="Система полива" style="rounded=0;whiteSpace=wrap;html=1;" vertex="1" parent="1">
          <mxGeometry x="630" y="140" width="120" height="60" as="geometry" />
        </mxCell>
        <mxCell id="VHnzgXru5prnDkUkWmX3-11" value="Кондиционер" style="rounded=0;whiteSpace=wrap;html=1;" vertex="1" parent="1">
          <mxGeometry x="760" y="140" width="120" height="60" as="geometry" />
        </mxCell>
        <mxCell id="VHnzgXru5prnDkUkWmX3-12" value="Музыкальная колонка" style="rounded=0;whiteSpace=wrap;html=1;" vertex="1" parent="1">
          <mxGeometry x="890" y="140" width="120" height="60" as="geometry" />
        </mxCell>
        <mxCell id="VHnzgXru5prnDkUkWmX3-13" value="Телевизор" style="rounded=0;whiteSpace=wrap;html=1;" vertex="1" parent="1">
          <mxGeometry x="1020" y="140" width="120" height="60" as="geometry" />
        </mxCell>
        <mxCell id="VHnzgXru5prnDkUkWmX3-14" value="Робот-пылесос" style="rounded=0;whiteSpace=wrap;html=1;" vertex="1" parent="1">
          <mxGeometry x="1150" y="140" width="120" height="60" as="geometry" />
        </mxCell>
        <mxCell id="VHnzgXru5prnDkUkWmX3-15" value="" style="rounded=0;whiteSpace=wrap;html=1;" vertex="1" parent="1">
          <mxGeometry x="190" y="320" width="440" height="120" as="geometry" />
        </mxCell>
        <mxCell id="VHnzgXru5prnDkUkWmX3-17" value="Слой сценариев" style="text;html=1;align=center;verticalAlign=middle;whiteSpace=wrap;rounded=0;" vertex="1" parent="1">
          <mxGeometry x="350" y="320" width="110" height="30" as="geometry" />
        </mxCell>
        <mxCell id="VHnzgXru5prnDkUkWmX3-18" value="Управление устройствами" style="rounded=0;whiteSpace=wrap;html=1;" vertex="1" parent="1">
          <mxGeometry x="230" y="360" width="120" height="60" as="geometry" />
        </mxCell>
        <mxCell id="VHnzgXru5prnDkUkWmX3-19" value="Мониторинг состояния устройств" style="rounded=0;whiteSpace=wrap;html=1;" vertex="1" parent="1">
          <mxGeometry x="460" y="360" width="120" height="60" as="geometry" />
        </mxCell>
        <mxCell id="VHnzgXru5prnDkUkWmX3-21" value="" style="rounded=0;whiteSpace=wrap;html=1;" vertex="1" parent="1">
          <mxGeometry x="190" y="520" width="440" height="130" as="geometry" />
        </mxCell>
        <mxCell id="VHnzgXru5prnDkUkWmX3-22" value="Адаптеры для умного дома" style="rounded=0;whiteSpace=wrap;html=1;" vertex="1" parent="1">
          <mxGeometry x="241" y="572.5" width="120" height="60" as="geometry" />
        </mxCell>
        <mxCell id="VHnzgXru5prnDkUkWmX3-23" value="Слой адаптеров" style="text;html=1;align=center;verticalAlign=middle;whiteSpace=wrap;rounded=0;" vertex="1" parent="1">
          <mxGeometry x="361" y="520" width="105" height="30" as="geometry" />
        </mxCell>
        <mxCell id="VHnzgXru5prnDkUkWmX3-24" value="Контроллеры устройств" style="rounded=0;whiteSpace=wrap;html=1;" vertex="1" parent="1">
          <mxGeometry x="460" y="572.5" width="120" height="60" as="geometry" />
        </mxCell>
        <mxCell id="VHnzgXru5prnDkUkWmX3-25" value="Android SDK" style="rounded=0;whiteSpace=wrap;html=1;" vertex="1" parent="1">
          <mxGeometry x="345" y="740" width="120" height="60" as="geometry" />
        </mxCell>
        <mxCell id="VHnzgXru5prnDkUkWmX3-28" value="" style="shape=flexArrow;endArrow=classic;html=1;rounded=0;exitX=0.25;exitY=1;exitDx=0;exitDy=0;entryX=0.5;entryY=0;entryDx=0;entryDy=0;" edge="1" parent="1" source="VHnzgXru5prnDkUkWmX3-15" target="VHnzgXru5prnDkUkWmX3-23">
          <mxGeometry width="50" height="50" relative="1" as="geometry">
            <mxPoint x="520" y="430" as="sourcePoint" />
            <mxPoint x="570" y="380" as="targetPoint" />
          </mxGeometry>
        </mxCell>
        <mxCell id="VHnzgXru5prnDkUkWmX3-30" value="" style="shape=flexArrow;endArrow=classic;html=1;rounded=0;exitX=0.351;exitY=1.015;exitDx=0;exitDy=0;exitPerimeter=0;entryX=0.5;entryY=0;entryDx=0;entryDy=0;" edge="1" parent="1" source="VHnzgXru5prnDkUkWmX3-1" target="VHnzgXru5prnDkUkWmX3-17">
          <mxGeometry width="50" height="50" relative="1" as="geometry">
            <mxPoint x="90" y="280" as="sourcePoint" />
            <mxPoint x="140" y="230" as="targetPoint" />
          </mxGeometry>
        </mxCell>
        <mxCell id="VHnzgXru5prnDkUkWmX3-31" value="" style="shape=flexArrow;endArrow=classic;html=1;rounded=0;exitX=0.5;exitY=0;exitDx=0;exitDy=0;entryX=0.542;entryY=1.008;entryDx=0;entryDy=0;entryPerimeter=0;" edge="1" parent="1" source="VHnzgXru5prnDkUkWmX3-17" target="VHnzgXru5prnDkUkWmX3-1">
          <mxGeometry width="50" height="50" relative="1" as="geometry">
            <mxPoint x="440" y="310" as="sourcePoint" />
            <mxPoint x="490" y="260" as="targetPoint" />
          </mxGeometry>
        </mxCell>
        <mxCell id="VHnzgXru5prnDkUkWmX3-32" value="" style="shape=flexArrow;endArrow=classic;html=1;rounded=0;exitX=0.5;exitY=0;exitDx=0;exitDy=0;entryX=0.75;entryY=1;entryDx=0;entryDy=0;" edge="1" parent="1" source="VHnzgXru5prnDkUkWmX3-23" target="VHnzgXru5prnDkUkWmX3-15">
          <mxGeometry width="50" height="50" relative="1" as="geometry">
            <mxPoint x="550" y="480" as="sourcePoint" />
            <mxPoint x="600" y="430" as="targetPoint" />
          </mxGeometry>
        </mxCell>
        <mxCell id="VHnzgXru5prnDkUkWmX3-33" value="" style="shape=flexArrow;endArrow=classic;html=1;rounded=0;exitX=0.25;exitY=1;exitDx=0;exitDy=0;entryX=0.5;entryY=0;entryDx=0;entryDy=0;" edge="1" parent="1" source="VHnzgXru5prnDkUkWmX3-21" target="VHnzgXru5prnDkUkWmX3-25">
          <mxGeometry width="50" height="50" relative="1" as="geometry">
            <mxPoint x="500" y="540" as="sourcePoint" />
            <mxPoint x="550" y="490" as="targetPoint" />
          </mxGeometry>
        </mxCell>
        <mxCell id="VHnzgXru5prnDkUkWmX3-34" value="" style="shape=flexArrow;endArrow=classic;html=1;rounded=0;entryX=0.75;entryY=1;entryDx=0;entryDy=0;" edge="1" parent="1" source="VHnzgXru5prnDkUkWmX3-25" target="VHnzgXru5prnDkUkWmX3-21">
          <mxGeometry width="50" height="50" relative="1" as="geometry">
            <mxPoint x="500" y="540" as="sourcePoint" />
            <mxPoint x="550" y="490" as="targetPoint" />
          </mxGeometry>
        </mxCell>
        <mxCell id="VHnzgXru5prnDkUkWmX3-35" value="Внешний мир" style="text;html=1;align=center;verticalAlign=middle;whiteSpace=wrap;rounded=0;" vertex="1" parent="1">
          <mxGeometry x="230" y="680" width="100" height="50" as="geometry" />
        </mxCell>
        <mxCell id="VHnzgXru5prnDkUkWmX3-36" value="Использование" style="text;html=1;align=center;verticalAlign=middle;whiteSpace=wrap;rounded=0;" vertex="1" parent="1">
          <mxGeometry x="500" y="690" width="60" height="30" as="geometry" />
        </mxCell>
        <mxCell id="VHnzgXru5prnDkUkWmX3-37" value="Преобразование" style="text;html=1;align=center;verticalAlign=middle;whiteSpace=wrap;rounded=0;" vertex="1" parent="1">
          <mxGeometry x="230" y="460" width="60" height="30" as="geometry" />
        </mxCell>
        <mxCell id="VHnzgXru5prnDkUkWmX3-38" value="Преобразование" style="text;html=1;align=center;verticalAlign=middle;whiteSpace=wrap;rounded=0;" vertex="1" parent="1">
          <mxGeometry x="510" y="460" width="60" height="30" as="geometry" />
        </mxCell>
        <mxCell id="VHnzgXru5prnDkUkWmX3-39" value="Обратная связь" style="text;html=1;align=center;verticalAlign=middle;whiteSpace=wrap;rounded=0;" vertex="1" parent="1">
          <mxGeometry x="200" y="250" width="100" height="30" as="geometry" />
        </mxCell>
        <mxCell id="VHnzgXru5prnDkUkWmX3-40" value="Операции" style="text;html=1;align=center;verticalAlign=middle;whiteSpace=wrap;rounded=0;" vertex="1" parent="1">
          <mxGeometry x="520" y="250" width="60" height="30" as="geometry" />
        </mxCell>
      </root>
    </mxGraphModel>
  </diagram>
</mxfile>
